<svg id="Layer_1" data-name="Layer 1" xmlns="http://www.w3.org/2000/svg" viewBox="0 0 732 212.09"><defs><style>.cls-1{fill:#434343;}</style></defs><title>express-logo-freelogovectors.net</title><path class="cls-1" d="M9.15,269q56.54-.09,113.1,0c0,1.17-.07,3.5-.09,4.64-36,.87-72.12-.19-108.15.52.17,24.65,0,49.31.07,74,34,.11,67.9-.11,101.86.06-.09,1.13-.24,3.33-.3,4.45-33.85.67-67.72.11-101.56.3.08,27.16-.16,54.31.13,81.46,36.69,0,73.41-.39,110.13.19Q147,405.18,169.68,375.7c-14.82-19.74-29.9-39.27-44.45-59.2,2.48.41,6-.89,7.6,1.86l39.85,53.73c13.82-18.48,28-36.67,41.75-55.18l5.83-.61c-13.95,20.41-29.76,39.53-44.36,59.47q24.49,31.71,49,63.39l-6.46-.17c-15.07-20-30.56-39.66-45.83-59.51-15.34,19.85-30.56,39.77-45.88,59.64C87.51,439,48.25,439.29,9,439c.28-56.64,0-113.29.15-169.95m255.24,50.48c18.08-9.35,42.21-7.17,57.13,7.13,13,12.05,18.23,30.19,18.9,47.43.61,18.08-3.71,37.17-15.61,51.25-18.73,22.64-58.65,21.8-76.4-1.64-4.36-5.33-6.8-11.83-9.38-18.14-.17,25.18,0,50.37-.06,75.53-1.25,0-3.74,0-5,0q.08-82.17,0-164.33l4.84-.13c.28,11.28-.06,22.57.2,33.85,4.9-12.64,12.93-24.67,25.33-30.91m14.91.19c-13.61,2.34-25.36,11.64-31.88,23.63-9.16,16.53-10.09,36.51-6.27,54.69,3,15.12,12.87,29.25,27.37,35.23,15.42,6.24,34.82,5.14,47.67-6.18,13.78-11.9,19.05-30.8,19.37-48.42.09-17-4.23-35-16.35-47.52-10.13-10.52-25.85-14.11-39.91-11.43M367,347.13c4.6-21.88,27.6-35.79,49.14-32.79-.29,1.1-.8,3.26-1.08,4.36-12.14-.5-24.89,3-33.53,11.92-11,10.67-14.62,26.59-14.68,41.41,0,22.36,0,44.71,0,67.07H362c.07-40.5-.13-81,.07-121.5,1.08-.41,3.24-1.28,4.32-1.69.9,10.37.06,20.8.54,31.22m62.35-11.84c10.42-15.1,29.53-23.63,47.74-21a48.44,48.44,0,0,1,36.85,23.13c7.69,12.31,9.89,27.09,9.87,41.36-34.13,0-68.26.13-102.38,0,.49,16.78,3.86,35.23,16.72,47.17,14.83,13.31,37.95,13.94,55.48,5.94,13.72-6.26,21.65-20.56,23.72-35,1.17-.17,3.52-.47,4.69-.63-1,17.33-11.84,33.74-27.93,40.59-13.93,6-30.3,6.33-44.67,1.68-14.94-4.9-25.18-18.7-29.27-33.43-6.37-23.09-5.18-49.83,9.18-69.81m10.42-4.6c-11.93,11.1-17.59,27.54-18.17,43.54,32.4-.39,64.82-.06,97.22-.17-.35-15.92-4.86-32.85-17.06-43.85-16.81-15.35-45.47-15.25-62,.48m108.6-3.78c9-10.37,23.56-13.44,36.76-13.09,12.33.32,25.75,3.41,34.28,13,6.39,7.09,7.8,17,8.29,26.14l-5-.35c-.3-8.25-2.05-17-8-23.11-7.45-8.12-19-10.43-29.54-10.73-11.34-.24-24,1.77-32.1,10.45-9.7,9.81-8.12,29.22,4.9,35.42,19.77,9.05,42.57,9.64,61.52,20.67,15,9.55,14.88,33.48,2.18,44.91-10.28,9.59-25.14,11.92-38.69,11.36-12.61-.37-26.22-3.28-35.38-12.61-8.18-8.41-10.36-20.63-10.47-32l4.6.3c.84,9.36,2.07,19.44,8.57,26.79,8.58,9.78,22.36,12.78,34.84,12.87,11.52-.26,24.07-2,32.77-10.22,8.4-7.23,10.69-20.52,5.18-30.11-4.49-7.36-12.7-11.38-20.69-13.76-15.59-4.53-31.92-6.84-46.76-13.67-15.79-6.91-17.91-30.13-7.17-42.31m110.2-.07c9-10.32,23.54-13.39,36.7-13,12.33.35,25.79,3.41,34.3,13,6.39,7.11,7.79,17,8.31,26.18l-5.1-.49c-.28-8.21-2.05-16.92-8-23-8-8.7-20.56-10.82-31.86-10.75-10.67,0-22.29,2.37-29.87,10.49-9.61,9.81-8.08,29.16,4.91,35.36,19.74,9.05,42.53,9.63,61.47,20.65,14.69,9.2,15,32.18,3.32,43.93-9.13,9.4-22.87,12.4-35.53,12.45-13.45.08-28.1-2.14-38.42-11.52-9.07-8.36-11.51-21.29-11.69-33.09l4.67.28c.84,8.88,1.83,18.36,7.6,25.62,7.82,10.07,21.21,13.5,33.42,14,12.29.06,25.91-1.45,35.27-10.33,8.31-7.21,10.47-20.36,5.09-29.91-4.47-7.37-12.65-11.43-20.64-13.8-15.6-4.56-32-6.85-46.83-13.7-15.86-6.91-17.91-30.22-7.15-42.38Z" transform="translate(-9 -268.96)"/></svg>