<svg id="Layer_1" data-name="Layer 1" xmlns="http://www.w3.org/2000/svg" viewBox="0 0 91.97 41.41"><defs><style>.cls-1,.cls-6{font-size:25.5px;}.cls-1,.cls-2{fill:#00a651;}.cls-1,.cls-2,.cls-6,.cls-7{font-family:MyriadPro-Regular, Myriad Pro;}.cls-2,.cls-7{font-size:12.75px;}.cls-3{letter-spacing:0em;}.cls-4{letter-spacing:0.02em;}.cls-5{letter-spacing:-0.07em;}.cls-6,.cls-7{fill:#262262;}.cls-8{fill:none;stroke:#231f20;stroke-miterlimit:10;stroke-width:2px;}</style></defs><text class="cls-1" transform="translate(0 34.78)">S</text><text class="cls-2" transform="translate(11.47 34.78)">tude<tspan class="cls-3" x="24.82" y="0">n</tspan><tspan class="cls-4" x="31.84" y="0">t</tspan><tspan class="cls-5" x="36.33" y="0">’</tspan><tspan x="38.05" y="0">s</tspan></text><text class="cls-6" transform="translate(53.24 35.03)">H</text><text class="cls-7" transform="translate(67.95 35.17)">ome</text><path class="cls-8" d="M73.54,14h7.18a2.8,2.8,0,0,1,2.8,2.8V21.1a5.65,5.65,0,0,1-5.65,5.65H76.39a5.65,5.65,0,0,1-5.65-5.65V16.77a2.8,2.8,0,0,1,2.8-2.8Z"/><polygon class="cls-8" points="76.99 2 70.08 13.96 83.9 13.96 76.99 2"/><rect class="cls-8" x="75.08" y="22.93" width="3.81" height="3.81"/></svg>